<?xml version="1.0" encoding="UTF-8"?>
<svg width="27px" height="16px" viewBox="0 0 27 16" version="1.1" xmlns="http://www.w3.org/2000/svg" xmlns:xlink="http://www.w3.org/1999/xlink">
    <defs></defs>
    <g id="FAQ" stroke="none" stroke-width="1" fill="none" fill-rule="evenodd">
        <g id="F.A.Q." transform="translate(-678.000000, -3044.000000)" fill="#FAAC09" fill-rule="nonzero">
            <g id="UI" transform="translate(135.000000, 2667.000000)">
                <g id="info" transform="translate(70.000000, 174.000000)">
                    <g id="right-arrow" transform="translate(473.000000, 203.000000)">
                        <path d="M18.8846536,0.240628669 C18.5746545,-0.0802095565 18.058712,-0.0802095565 17.7378737,0.240628669 C17.4278746,0.550627766 17.4278746,1.06657032 17.7378737,1.37584681 L23.5527053,7.19067835 L0.802818174,7.19067835 C0.35552344,7.19140096 0,7.5469244 0,7.99421913 C0,8.44151387 0.35552344,8.80859904 0.802818174,8.80859904 L23.5527053,8.80859904 L17.7378737,14.6125915 C17.4278746,14.9334297 17.4278746,15.4500948 17.7378737,15.7593713 C18.058712,16.0802096 18.5753771,16.0802096 18.8846536,15.7593713 L26.0760546,8.56797037 C26.3968928,8.25797128 26.3968928,7.74202872 26.0760546,7.43275224 L18.8846536,0.240628669 Z" id="Shape"></path>
                    </g>
                </g>
            </g>
        </g>
    </g>
</svg>