<?xml version="1.0" encoding="UTF-8"?>
<svg width="116px" height="120px" viewBox="0 0 116 120" version="1.1" xmlns="http://www.w3.org/2000/svg" xmlns:xlink="http://www.w3.org/1999/xlink">
    <!-- Generator: sketchtool 50.2 (55047) - http://www.bohemiancoding.com/sketch -->
    <title>CF6DFD37-B3EF-4D94-BD03-251A6C6B9269</title>
    <desc>Created with sketchtool.</desc>
    <defs></defs>
    <g id="FAQ" stroke="none" stroke-width="1" fill="none" fill-rule="evenodd">
        <g id="F.A.Q." transform="translate(-1062.000000, -1506.000000)">
            <g id="Category-Questions" transform="translate(135.000000, 903.000000)">
                <g id="6" transform="translate(800.000000, 539.000000)">
                    <g id="update" transform="translate(120.000000, 58.000000)">
                        <rect id="Rectangle-16" x="0" y="0" width="130" height="130"></rect>
                        <path d="M102.76952,27.2255859 L102.76952,6.3046875 C102.76952,5.200118 101.874089,4.3046875 100.76952,4.3046875 L28.8515508,4.3046875 C27.7469813,4.3046875 26.8515508,5.200118 26.8515508,6.3046875 L26.8515508,27.2255859 C26.8515508,28.3301554 25.9561203,29.2255859 24.8515508,29.2255859 L12.1156537,29.2255859 C9.35423,29.2255859 7.11565375,31.4641622 7.11565375,34.2255859 C7.11565375,35.5516684 7.64243795,36.823438 8.58011984,37.7611198 L61.2746802,90.4556622 C63.2272981,92.4082801 66.3931161,92.4082841 68.345739,90.4556712 L121.040568,37.7611289 C122.993194,35.8085124 122.993202,32.6426875 121.040586,30.690061 C120.102903,29.7523736 118.83113,29.2255859 117.505043,29.2255859 L104.76952,29.2255859 C103.66495,29.2255859 102.76952,28.3301554 102.76952,27.2255859 Z M26.3653541,39.1279297 L34.7535645,39.1279297 C35.858134,39.1279297 36.7535645,38.2324992 36.7535645,37.1279297 L36.7535645,16.2070312 C36.7535645,15.1024618 37.648995,14.2070312 38.7535645,14.2070312 L90.8668457,14.2070312 C91.9714152,14.2070312 92.8668457,15.1024618 92.8668457,16.2070312 L92.8668457,37.1279297 C92.8668457,38.2324992 93.7622762,39.1279297 94.8668457,39.1279297 L103.255372,39.1279297 C103.807657,39.1279297 104.255372,39.5756449 104.255372,40.1279297 C104.255372,40.3931462 104.150016,40.6475001 103.962479,40.8350365 L68.3457533,76.4517909 C66.3931318,78.4044124 63.2273069,78.4044124 61.2746855,76.4517909 C61.2746807,76.4517862 61.2746759,76.4517814 61.2746712,76.4517766 L25.6582444,40.8350336 C25.2677217,40.4445077 25.2677243,39.8113428 25.6582501,39.4208201 C25.8457863,39.2332854 26.100139,39.1279297 26.3653541,39.1279297 Z" id="Shape" fill="#333333" fill-rule="nonzero" opacity="0.249720982" transform="translate(64.810370, 49.147946) rotate(-180.000000) translate(-64.810370, -49.147946) "></path>
                        <rect id="Rectangle-path" fill="#333333" fill-rule="nonzero" opacity="0.249720982" transform="translate(65.258984, 105.151172) rotate(-180.000000) translate(-65.258984, -105.151172) " x="27.3" y="100.2" width="75.9179688" height="9.90234375" rx="4.95117188"></rect>
                        <rect id="Rectangle-path-Copy" fill="#333333" fill-rule="nonzero" opacity="0.249720982" transform="translate(65.258984, 120.751172) rotate(-180.000000) translate(-65.258984, -120.751172) " x="27.3" y="115.8" width="75.9179688" height="9.90234375" rx="4.95117188"></rect>
                    </g>
                </g>
            </g>
        </g>
    </g>
</svg>