<?xml version="1.0" encoding="UTF-8"?>
<svg width="130px" height="130px" viewBox="0 0 130 130" version="1.1" xmlns="http://www.w3.org/2000/svg" xmlns:xlink="http://www.w3.org/1999/xlink">
    <!-- Generator: sketchtool 50.2 (55047) - http://www.bohemiancoding.com/sketch -->
    <title>052662A5-9B6B-41B1-B0F6-55053E2E5839</title>
    <desc>Created with sketchtool.</desc>
    <defs>
        <rect id="path-1" x="0" y="0" width="130" height="130"></rect>
    </defs>
    <g id="FAQ" stroke="none" stroke-width="1" fill="none" fill-rule="evenodd">
        <g id="F.A.Q." transform="translate(-655.000000, -961.000000)">
            <g id="Category-Questions" transform="translate(135.000000, 903.000000)">
                <g id="2" transform="translate(400.000000, 0.000000)">
                    <g id="route-2" transform="translate(120.000000, 58.000000)">
                        <mask id="mask-2" fill="white">
                            <use xlink:href="#path-1"></use>
                        </mask>
                        <g id="Rectangle-12"></g>
                        <path d="M72.8710938,107.148438 C67.9060362,107.148438 63.6729432,110.333176 62.0999146,114.765625 L37.4313354,114.765625 C35.8583068,110.333176 31.6252138,107.148438 26.6601562,107.148438 C20.3601074,107.148438 15.234375,112.27417 15.234375,118.574219 C15.234375,124.874268 20.3601074,130 26.6601562,130 C31.6252138,130 35.8583068,126.815262 37.4313354,122.382812 L62.1009063,122.382812 C63.6729432,126.815262 67.9060362,130 72.8710938,130 C79.1711426,130 84.296875,124.874268 84.296875,118.574219 C84.296875,116.812744 83.8961792,115.142517 83.1800841,113.650818 L98.4164429,98.4144591 C99.9081421,99.1295624 101.578369,99.53125 103.339844,99.53125 C109.639893,99.53125 114.765625,94.4055176 114.765625,88.1054688 C114.765625,81.8054199 109.639893,76.6796875 103.339844,76.6796875 C97.0397949,76.6796875 91.9140625,81.8054199 91.9140625,88.1054688 C91.9140625,89.8669434 92.3157501,91.5371704 93.0308534,93.0288696 L77.7944946,108.265228 C76.3027954,107.550125 74.6325684,107.148438 72.8710938,107.148438 Z M26.6601562,122.382812 C24.5604706,122.382812 22.8515625,120.673904 22.8515625,118.574219 C22.8515625,116.474533 24.5604706,114.765625 26.6601562,114.765625 C28.7598419,114.765625 30.46875,116.474533 30.46875,118.574219 C30.46875,120.673904 28.7598419,122.382812 26.6601562,122.382812 Z M72.8710938,122.382812 C70.7714081,122.382812 69.0625,120.673904 69.0625,118.574219 C69.0625,116.474533 70.7714081,114.765625 72.8710938,114.765625 C74.9707794,114.765625 76.6796875,116.474533 76.6796875,118.574219 C76.6796875,120.673904 74.9707794,122.382812 72.8710938,122.382812 Z M103.339844,84.296875 C105.439529,84.296875 107.148438,86.0057831 107.148438,88.1054688 C107.148438,90.2051544 105.439529,91.9140625 103.339844,91.9140625 C101.240158,91.9140625 99.53125,90.2051544 99.53125,88.1054688 C99.53125,86.0057831 101.240158,84.296875 103.339844,84.296875 Z" id="Shape" fill="#333333" fill-rule="nonzero" opacity="0.25" mask="url(#mask-2)"></path>
                        <path d="M26.6601562,30.7226563 C11.959381,30.7226563 0,42.6820372 0,57.3828125 C0,62.6523589 1.52839654,67.9020692 4.30252063,72.1639252 L23.4684755,101.609116 C24.1706847,102.688217 25.3717803,103.339844 26.6601562,103.339844 C27.9485322,103.339844 29.1496278,102.688217 29.851837,101.609116 L49.0177919,72.1639252 C51.791916,67.9020692 53.3203125,62.6523589 53.3203125,57.3828125 C53.3203125,42.6820372 41.3609315,30.7226562 26.6601562,30.7226563 Z M42.633438,68.0081939 L26.6601562,92.5498199 L10.6868745,68.0081939 C8.70719916,64.9682617 7.6171875,61.1943818 7.6171875,57.3828125 C7.6171875,46.8824004 16.1597442,38.3398438 26.6601562,38.3398438 C37.1605683,38.3398438 45.703125,46.8824004 45.703125,57.3828125 C45.703125,61.1943818 44.6131133,64.9682617 42.633438,68.0081939 Z" id="Shape" fill="#333333" fill-rule="nonzero" opacity="0.25" mask="url(#mask-2)"></path>
                        <path d="M26.6601562,45.9570312 C20.3601074,45.9570312 15.234375,51.0827637 15.234375,57.3828125 C15.234375,63.6828613 20.3601074,68.8085938 26.6601562,68.8085938 C32.9602051,68.8085938 38.0859375,63.6828613 38.0859375,57.3828125 C38.0859375,51.0827637 32.9602051,45.9570312 26.6601562,45.9570312 Z M26.6601562,61.1914062 C24.5604706,61.1914062 22.8515625,59.4824981 22.8515625,57.3828125 C22.8515625,55.2831269 24.5604706,53.5742188 26.6601562,53.5742188 C28.7598419,53.5742188 30.46875,55.2831269 30.46875,57.3828125 C30.46875,59.4824981 28.7598419,61.1914062 26.6601562,61.1914062 Z" id="Shape" fill="#333333" fill-rule="nonzero" opacity="0.25" mask="url(#mask-2)"></path>
                        <path d="M103.339844,0 C88.6390685,0 76.6796875,12.0734405 76.6796875,26.9140625 C76.6796875,32.0903779 78.1654357,37.1109771 80.9772491,41.4333344 L100.139236,71.1274718 C100.841446,72.2145079 102.046509,72.8710938 103.339844,72.8710938 C104.633179,72.8710938 105.838242,72.2145079 106.540451,71.1274718 L125.697479,41.441269 C128.512268,37.1179199 130,32.0943452 130,26.9140625 C130,12.0734405 118.040619,0 103.339844,0 Z M119.305191,37.2984315 L103.339844,62.0384218 C103.339844,62.0384218 87.3685455,37.2895049 87.3655702,37.2855377 C85.3581239,34.2009736 84.296875,30.6145478 84.296875,26.9140625 C84.296875,16.2738037 92.8394317,7.6171875 103.339844,7.6171875 C113.840256,7.6171875 122.382812,16.2738037 122.382812,26.9140625 C122.382812,30.6145478 121.321564,34.2009736 119.305191,37.2984315 Z" id="Shape" fill="#333333" fill-rule="nonzero" opacity="0.25" mask="url(#mask-2)"></path>
                        <path d="M103.339844,15.4882812 C97.0397949,15.4882812 91.9140625,20.6140137 91.9140625,26.9140625 C91.9140625,33.2141113 97.0397949,38.3398438 103.339844,38.3398438 C109.639893,38.3398438 114.765625,33.2141113 114.765625,26.9140625 C114.765625,20.6140137 109.639893,15.4882812 103.339844,15.4882812 Z M103.339844,30.7226562 C101.240158,30.7226562 99.53125,29.0137481 99.53125,26.9140625 C99.53125,24.8143769 101.240158,23.1054688 103.339844,23.1054688 C105.439529,23.1054688 107.148438,24.8143769 107.148438,26.9140625 C107.148438,29.0137481 105.439529,30.7226562 103.339844,30.7226562 Z" id="Shape" fill="#333333" fill-rule="nonzero" opacity="0.25" mask="url(#mask-2)"></path>
                    </g>
                </g>
            </g>
        </g>
    </g>
</svg>