<?xml version="1.0" encoding="UTF-8"?>
<svg width="130px" height="126px" viewBox="0 0 130 126" version="1.1" xmlns="http://www.w3.org/2000/svg" xmlns:xlink="http://www.w3.org/1999/xlink">
    <!-- Generator: sketchtool 50.2 (55047) - http://www.bohemiancoding.com/sketch -->
    <title>6FC79B8F-A41D-454A-8CEE-99003A1A1DFD</title>
    <desc>Created with sketchtool.</desc>
    <defs></defs>
    <g id="FAQ" stroke="none" stroke-width="1" fill="none" fill-rule="evenodd" opacity="0.25">
        <g id="F.A.Q." transform="translate(-655.000000, -1502.000000)">
            <g id="Category-Questions" transform="translate(135.000000, 903.000000)">
                <g id="5" transform="translate(400.000000, 539.000000)">
                    <g id="settings" transform="translate(120.000000, 58.000000)">
                        <rect id="Rectangle-15" x="0" y="0" width="130" height="130"></rect>
                        <path d="M79.6232017,92.4248903 C78.3361833,91.6421174 77.0152142,90.855231 75.6942451,90.0838307 C76.0048223,87.4052229 76.0055396,84.6956429 75.6956797,82.0223584 C77.0216696,81.2480545 78.3419215,80.461652 79.6227235,79.6822666 C81.7793102,78.3707893 82.6782864,75.6036205 81.7133215,73.245139 C81.7133215,73.245139 81.7133215,73.245139 81.7130824,73.244897 L78.8987607,66.3685938 C77.9335567,64.0108382 75.3657362,62.6966992 72.9231986,63.3125128 C71.4716867,63.6781294 69.988615,64.0669752 68.5108032,64.4681615 C66.8608471,62.3552795 64.9674979,60.4396031 62.877139,58.7688003 C63.2735493,57.2729418 63.6580051,55.771276 64.0195083,54.3017923 C64.6279909,51.8310367 63.3297353,49.2313111 61.0000479,48.2544782 L54.2056045,45.4062495 C51.8759171,44.4291746 49.1409731,45.3382559 47.8446302,47.5213092 C47.0726104,48.8216559 46.2948525,50.1585401 45.5316791,51.497602 C42.8856764,51.183283 40.2088311,51.1825571 37.5661756,51.4959082 C36.8006113,50.1527328 36.0233315,48.8163326 35.2541809,47.5213092 C33.9573598,45.3387398 31.2231331,44.4294166 28.8932066,45.4062495 L22.0987632,48.2544782 C19.769554,49.2310691 18.4708202,51.8310367 19.0793028,54.3017923 C19.4415233,55.7741797 19.8255009,57.2753615 20.2211939,58.7673485 C18.1337041,60.4366994 16.240594,62.3533437 14.5899206,64.4688874 C13.1085225,64.0664913 11.6247335,63.6778875 10.1756124,63.3125128 C7.733553,62.6962152 5.16525435,64.0113221 4.20005032,66.3688357 L1.38620683,73.244897 C0.421480979,75.6028946 1.32021814,78.3703053 3.47632662,79.6817827 C4.7614323,80.4633458 6.0824014,81.2502322 7.40528321,82.0228424 C7.09494513,84.7004823 7.09422786,87.4095783 7.40384867,90.0843146 C6.07977141,90.8574087 4.75951959,91.6440532 3.47584844,92.4246484 C1.31973997,93.7363677 0.4210028,96.5035365 1.38596774,98.861776 L4.2005285,105.738079 C5.16549344,108.095593 7.73307482,109.410216 10.1760906,108.79416 C11.6259289,108.428786 13.1092397,108.040182 14.5880078,107.638512 C16.237964,109.751152 18.1313132,111.666586 20.2216721,113.337631 C19.8247836,114.835183 19.4405669,116.336849 19.0793028,117.804639 C18.4708202,120.275394 19.7690758,122.875362 22.0987632,123.851953 L28.8934457,126.700424 C29.5246418,126.964897 30.1852459,127.091205 30.8389164,127.091205 C32.5990927,127.091205 34.3090603,126.176801 35.2551372,124.585606 C36.0214188,123.29518 36.7986986,121.95878 37.5680884,120.609555 C40.2136129,120.92339 42.8911754,120.923874 45.5335918,120.611007 C46.2936571,121.944745 47.0709368,123.280904 47.8455866,124.585848 C49.1419294,126.768417 51.8761562,127.677498 54.2065608,126.700908 L61.0010042,123.852679 C63.3302135,122.876088 64.6289472,120.27612 64.0204646,117.805365 C63.6611132,116.34556 63.2771356,114.844378 62.8785735,113.339809 C64.9655852,111.670458 66.8589343,109.754055 68.5100859,107.638512 C69.9871804,108.039456 71.4709694,108.42806 72.9236768,108.794402 C75.365019,109.4107 77.9340349,108.096561 78.8992389,105.738321 L81.7135606,98.861776 C82.6780473,96.5037785 81.7793102,93.7363677 79.6232017,92.4248903 Z M73.9500877,103.337979 C72.5545227,102.984219 71.1319406,102.610133 69.7174876,102.224433 C67.7148745,101.679275 65.601563,102.391876 64.3334327,104.040902 C62.8759435,105.935527 61.1891676,107.642867 59.3202055,109.115738 C57.6927238,110.398663 56.9895618,112.53671 57.5287085,114.562241 C57.9119688,116.00293 58.281362,117.441684 58.6287589,118.844142 L52.3832648,121.462015 C51.640414,120.207643 50.8966068,118.925928 50.1695358,117.647358 C49.1349959,115.829196 47.1438591,114.821633 45.0970145,115.078121 C42.7465263,115.373566 40.3606529,115.373324 38.0070565,115.076911 C35.9544738,114.818971 33.9650107,115.826534 32.9307098,117.645181 C32.1947925,118.938268 31.4507462,120.220709 30.7160244,121.461773 L24.4705303,118.843658 C24.81984,117.433699 25.1894722,115.994219 25.571059,114.560547 C26.1102056,112.534048 25.4056091,110.395034 23.7762146,109.111383 C21.9041444,107.636576 20.2173685,105.929719 18.761792,104.038482 C17.494618,102.390908 15.3820238,101.679517 13.379889,102.224917 C11.9637623,102.610859 10.5418974,102.984945 9.14920151,103.338221 L6.56225388,97.0177227 C7.79595534,96.2690676 9.06289022,95.5162989 10.3314987,94.7770806 C12.1282558,93.7300765 13.1247805,91.7154343 12.8703894,89.6436873 C12.577983,87.2646383 12.5787003,84.8502617 12.8711067,82.4680672 C13.1264542,80.3943843 12.1306467,78.3775644 10.3329333,77.3303183 C9.06480294,76.591342 7.79762896,75.8383314 6.56201479,75.0884664 L9.14896242,68.7679682 C10.5404629,69.1210024 11.9625668,69.495088 13.3813235,69.8815141 C15.3829802,70.4273984 17.4965308,69.7140709 18.7656174,68.0650454 C20.2228675,66.1704203 21.9096434,64.4630801 23.7781273,62.9904507 C25.4058482,61.7077678 26.1090102,59.569479 25.5698635,57.5432223 C25.1897113,56.1146314 24.8200791,54.6758779 24.4698131,53.2618052 L30.7153071,50.6439319 C31.4526589,51.8891095 32.1967052,53.1710665 32.9290362,54.4585888 C33.9638152,56.2769933 35.9566256,57.2869761 38.0015575,57.0278262 C40.3510893,56.7318969 42.7364845,56.7318969 45.0922327,57.029036 C47.1424246,57.28746 49.1340395,56.2784451 50.1683404,54.4600406 C50.8982804,53.1766318 51.6425658,51.8941909 52.3827867,50.6439319 L58.6282807,53.2618052 C58.278732,54.6732162 57.9090997,56.1126957 57.5277521,57.5454 C56.9886054,59.5716567 57.693202,61.7106714 59.3225964,62.9943222 C61.1944276,64.4691293 62.8814426,66.1759857 64.337019,68.0672231 C65.604193,69.7143128 67.7160699,70.4259466 69.7191612,69.8805462 C71.1343315,69.4948461 72.5559573,69.1207605 73.9496096,68.7672423 L76.5363181,75.0877404 C75.3042903,75.8351857 74.0375945,76.5879544 72.7670732,77.3283826 C70.9703162,78.3753867 69.9735523,80.3902708 70.2281826,82.4620179 C70.520589,84.839857 70.5201108,87.2544756 70.2269871,89.6381219 C69.9721178,91.7120467 70.9684035,93.7283827 72.7653996,94.7753868 C74.0316172,95.5131533 75.2987912,96.2661639 76.5363181,97.0167549 L73.9500877,103.337979 Z" id="Shape" stroke="#333333" fill="#333333" fill-rule="nonzero"></path>
                        <path d="M59.1899222,77.9690685 C59.1899222,77.9690685 59.1899222,77.9690685 59.1896845,77.9688309 C55.2726244,68.5141085 44.3923244,64.0080918 34.9336226,67.9243319 C25.4765845,71.8408097 20.9691131,82.7191225 24.8866486,92.1738448 C26.7840934,96.7542371 30.3527063,100.321174 34.9338602,102.218581 C37.2244372,103.166929 39.6312424,103.641221 42.0380477,103.641221 C44.444853,103.641221 46.8516582,103.166929 49.1427105,102.218581 C58.5997486,98.3021036 63.1069823,87.4240284 59.1899222,77.9690685 Z M47.0579694,97.1871835 C43.8211657,98.5276064 40.2561181,98.5273688 37.0183637,97.1871835 C33.78156,95.8467605 31.260428,93.3260715 29.9194053,90.0899042 C27.1510801,83.409413 30.3360683,75.7228323 37.0186014,72.9557298 C38.6550673,72.2780333 40.3511924,71.9572442 42.021172,71.9572442 C47.1711078,71.9572442 52.0669575,75.0083044 54.1574031,80.0530091 C56.925253,86.7335003 53.7402648,94.4198434 47.0579694,97.1871835 Z" id="Shape" stroke="#333333" fill="#333333" fill-rule="nonzero"></path>
                        <path d="M120.401201,27.6416215 C119.45028,27.4970959 118.473639,27.3567204 117.490027,27.2234248 C116.994375,25.5494176 116.332384,23.9264337 115.515592,22.3849896 C116.117489,21.5854601 116.710733,20.7844658 117.284026,19.9976311 C118.556808,18.249408 118.372681,15.7700121 116.85616,14.230521 L113.056322,10.3717841 C111.5398,8.83131659 109.098558,8.64455626 107.377718,9.93771895 C106.600347,10.5219248 105.811919,11.1241963 105.027097,11.7333035 C103.509614,10.9037459 101.911845,10.2314087 100.263118,9.72776616 C100.131633,8.7287815 99.9938983,7.73687665 99.8515967,6.77133796 C99.5350237,4.62151908 97.6788529,3 95.5342328,3 L90.1604237,3 C88.0158036,3 86.1596328,4.62151908 85.8430598,6.77109383 C85.7009985,7.73614426 85.5630237,8.72829324 85.4315389,9.72752203 C83.7828111,10.2311646 82.1848024,10.9035018 80.6675594,11.7330594 C79.8832179,11.1237081 79.0943093,10.5211924 78.317179,9.93747481 C76.5958582,8.64431213 74.1546162,8.83107245 72.6385751,10.3712959 L68.839218,14.2297886 C67.3224557,15.7697679 67.1380886,18.249408 68.4113516,19.9978753 C68.9841637,20.7844658 69.5774076,21.5857042 70.1790646,22.3849896 C69.3627533,23.9261896 68.700522,25.5489293 68.2046296,27.2234248 C67.2212581,27.3569646 66.2443767,27.4970959 65.2936962,27.6416215 C63.1767192,27.9633863 61.5801527,29.8483229 61.5801527,32.0267052 L61.5801527,37.484257 C61.5801527,39.6623951 63.1762384,41.5475758 65.2932154,41.8693406 C66.2441364,42.0138663 67.2207774,42.1542417 68.2043893,42.2875373 C68.7002816,43.9617887 69.3622726,45.5845284 70.1788243,47.1259725 C69.577648,47.9247696 68.9844041,48.7255198 68.4103901,49.513331 C67.1378482,51.2610659 67.3217346,53.7409501 68.8382565,55.2801969 L72.6380943,59.1394221 C74.1543758,60.6798897 76.5956178,60.8664059 78.3166982,59.5734873 C79.0940689,58.9897697 79.8824968,58.3870099 80.6670787,57.7781468 C82.1850428,58.6077045 83.7830515,59.2800417 85.4312985,59.7834401 C85.5623025,60.7821806 85.7005178,61.7743296 85.8428194,62.7401124 C86.1596328,64.8899313 88.0158036,66.5114504 90.1604237,66.5114504 L95.5342328,66.5114504 C97.6788529,66.5114504 99.5350237,64.8904196 99.8515967,62.7398683 C99.993658,61.7740855 100.131633,60.7821806 100.263118,59.783196 C101.911605,59.2800417 103.509373,58.6072162 105.027097,57.7776586 C105.811439,58.3870099 106.600347,58.9895256 107.377478,59.5734873 C109.098318,60.86665 111.54004,60.6798897 113.056081,59.1396663 L116.855919,55.2809293 C118.372441,53.7409501 118.556568,51.26131 117.283305,49.5130869 C116.709772,48.7255198 116.116528,47.9242813 115.515592,47.1262166 C116.331903,45.5850167 116.994135,43.9625211 117.490027,42.2877814 C118.473398,42.1542417 119.45028,42.0141104 120.40096,41.8695848 C122.517937,41.5478199 124.114504,39.6628833 124.114504,37.4845011 L124.114504,32.0269493 C124.114263,29.8485671 122.517937,27.9633863 120.401201,27.6416215 Z M118.880833,36.724765 C118.017408,36.8519573 117.136436,36.9754876 116.25258,37.0924265 C114.504337,37.3241069 113.073148,38.5843119 112.607302,40.3025069 C112.160927,41.9477067 111.513118,43.5352916 110.682144,45.0210737 C109.814152,46.5720389 109.948041,48.491398 111.023235,49.9115089 C111.56528,50.6273014 112.102997,51.3477324 112.626292,52.0596189 L109.885063,54.8439346 C109.181968,54.3109963 108.472623,53.765119 107.769288,53.215824 C106.371751,52.1233371 104.481447,51.9883326 102.954109,52.8689136 C101.49095,53.7131191 99.9277954,54.3710526 98.3088741,54.8244041 C96.6161578,55.2980185 95.3753454,56.7515754 95.1479512,58.5266529 C95.0328119,59.4243232 94.9114229,60.319308 94.7859475,61.196227 L90.908709,61.196227 C90.783474,60.319308 90.6620849,59.4245673 90.5467052,58.5276295 C90.31859,56.7518195 89.0780179,55.2982627 87.3857824,54.8246482 C85.7663804,54.3715408 84.2037066,53.7136074 82.7400672,52.8694019 C81.2127285,51.9880884 79.3224245,52.1235812 77.9251284,53.215824 C77.2215526,53.7653632 76.5126886,54.3109963 75.8091129,54.8439346 L73.0678837,52.0596189 C73.5911787,51.347 74.1286557,50.6270573 74.671421,49.9105324 C75.7458944,48.4909097 75.8797829,46.5715507 75.0120315,45.0205855 C74.1810574,43.5348033 73.5332485,41.9469743 73.0868733,40.3022628 C72.6207874,38.5835795 71.1898388,37.3236187 69.4415961,37.0919382 C68.5577396,36.9747553 67.6765272,36.8517132 66.8131025,36.7240326 L66.8131025,32.7866854 C67.6765272,32.6594931 68.5574992,32.5359627 69.4413557,32.4190239 C71.1895984,32.1873435 72.6207874,30.9271385 73.0866329,29.2089435 C73.5330081,27.5639878 74.1805766,25.9764029 75.0117911,24.4903766 C75.8797829,22.9394115 75.7458944,21.0198082 74.6711807,19.6001856 C74.128175,18.8834166 73.5906979,18.1632297 73.0678837,17.4518315 L75.8091129,14.6675158 C76.5122079,15.2004541 77.2213123,15.7463313 77.9244073,16.2953823 C79.321463,17.3878692 81.2115266,17.5240944 82.7400672,16.6425368 C84.2027452,15.7985754 85.76614,15.140642 87.3853017,14.6870463 C89.0780179,14.2134319 90.3188304,12.759875 90.5462245,10.9847974 C90.6616042,10.0871272 90.7832336,9.19238655 90.9084687,8.31546747 L94.7857071,8.31546747 C94.9109421,9.19214242 95.0323312,10.0868831 95.1474705,10.984065 C95.3755858,12.759875 96.6163982,14.2134319 98.3083933,14.6868022 C99.9280358,15.1401537 101.491431,15.7983313 102.954349,16.6422926 C104.481928,17.5238502 106.371992,17.3868926 107.769047,16.2956264 C108.472623,15.7463313 109.181487,15.2004541 109.885063,14.6675158 L112.626292,17.4518315 C112.103478,18.1634738 111.566001,18.8839048 111.022995,19.600918 C109.948281,21.0202965 109.814633,22.9396556 110.681904,24.4906208 C111.512878,25.9768912 112.160687,27.5647202 112.607062,29.2091876 C113.073148,30.9278709 114.504097,32.1878317 116.252339,32.4195122 C117.136196,32.5366951 118.017408,32.6599814 118.880833,32.7874178 L118.880833,36.724765 Z" id="Shape" stroke="#333333" fill="#333333" fill-rule="nonzero"></path>
                        <path d="M92.3587786,23.519084 C86.1630185,23.519084 81.1221374,28.5596686 81.1221374,34.7556041 C81.1221374,40.9517818 86.1627763,45.9923664 92.3587786,45.9923664 C98.5547809,45.9923664 103.59542,40.9517818 103.59542,34.7556041 C103.59542,28.5596686 98.5547809,23.519084 92.3587786,23.519084 Z M92.3587786,40.9973081 C88.9173893,40.9973081 86.1170074,38.1971986 86.1170074,34.7553619 C86.1170074,31.3135253 88.9171471,28.513658 92.3587786,28.513658 C95.8004102,28.513658 98.6003077,31.3137675 98.6005499,34.7553619 C98.6005499,38.1971986 95.8004102,40.9973081 92.3587786,40.9973081 Z" id="Shape" stroke="#333333" fill="#333333" fill-rule="nonzero"></path>
                        <path d="M126.273043,84.3292382 C125.57471,84.2247351 124.85749,84.1232329 124.13515,84.0268499 C123.771155,82.8164138 123.285006,81.6428717 122.685174,80.528289 C123.127192,79.9501677 123.562856,79.3709872 123.983868,78.8020452 C124.918567,77.5379454 124.783349,75.7451514 123.669654,74.631981 L120.879148,71.8418174 C119.765452,70.7279408 117.972665,70.5928988 116.708923,71.5279549 C116.138041,71.9503806 115.55904,72.3858693 114.982686,72.8263006 C113.868284,72.2264666 112.694923,71.7403151 111.484138,71.3761428 C111.387579,70.6538001 111.28643,69.9365766 111.181928,69.2384178 C110.949444,67.6839334 109.586319,66.5114504 108.011363,66.5114504 L104.064972,66.5114504 C102.490017,66.5114504 101.126892,67.6839334 100.894408,69.2382413 C100.790082,69.936047 100.688757,70.653447 100.592198,71.3759663 C99.3814132,71.7401386 98.2078755,72.2262901 97.0936502,72.8261241 C96.5176494,72.3855162 95.9382946,71.949851 95.3675896,71.5277783 C94.1034946,70.5927222 92.3107075,70.7277643 91.1973648,71.8414643 L88.4072119,74.6314514 C87.2933397,75.7449749 87.1579451,77.5379454 88.0929976,78.8022217 C88.5136565,79.3709872 88.94932,79.9503442 89.3911619,80.528289 C88.7916832,81.6426951 88.3053571,82.8160608 87.9411862,84.0268499 C87.2190227,84.1234094 86.5016254,84.2247351 85.8034694,84.3292382 C84.2488144,84.561899 83.0763359,85.9248531 83.0763359,87.499991 L83.0763359,91.4462208 C83.0763359,93.0211822 84.2484613,94.3843129 85.8031163,94.6169736 C86.5014489,94.7214768 87.2186697,94.822979 87.9410096,94.919362 C88.3051805,96.1299745 88.7913302,97.3033402 89.3909853,98.4179228 C88.9494965,98.9955146 88.513833,99.5745185 88.0922915,100.144167 C87.1577686,101.407913 87.2928101,103.20106 88.4065058,104.314054 L91.1970118,107.104571 C92.310531,108.218448 94.1033181,108.353313 95.3672365,107.418434 C95.9381181,106.996361 96.5171198,106.560519 97.0932972,106.120264 C98.208052,106.720098 99.3815897,107.20625 100.592021,107.570246 C100.688227,108.292412 100.789729,109.009812 100.894232,109.708147 C101.126892,111.262631 102.490017,112.435115 104.064972,112.435115 L108.011363,112.435115 C109.586319,112.435115 110.949444,111.262985 111.181928,109.707971 C111.286254,109.009635 111.387579,108.292412 111.484138,107.570069 C112.694746,107.20625 113.868107,106.719745 114.982686,106.119911 C115.558686,106.560519 116.138041,106.996184 116.708746,107.418434 C117.972488,108.35349 119.765628,108.218448 120.878971,107.104748 L123.669477,104.314584 C124.783173,103.20106 124.918391,101.40809 123.983338,100.14399 C123.56215,99.5745185 123.126486,98.9951615 122.685174,98.4180993 C123.284653,97.3036932 123.770979,96.1305041 124.13515,94.9195385 C124.857313,94.822979 125.57471,94.7216533 126.272867,94.6171501 C127.827521,94.3844894 129,93.0215352 129,91.4463973 L129,87.5001676 C128.999823,85.9250296 127.827521,84.561899 126.273043,84.3292382 Z M125.156523,90.8970497 C124.522445,90.9890195 123.875482,91.0783415 123.226399,91.1628972 C121.942534,91.33042 120.891504,92.2416451 120.549399,93.4840323 C120.221592,94.6736383 119.745858,95.8215843 119.135611,96.8959191 C118.498179,98.0173862 118.596504,99.4052305 119.3861,100.43208 C119.784163,100.949653 120.17905,101.47058 120.563344,101.985329 L118.550254,103.998603 C118.033919,103.613248 117.512994,103.218536 116.996482,102.821354 C115.970166,102.031402 114.581974,101.933783 113.460335,102.570511 C112.385828,103.180937 111.237886,103.656673 110.048991,103.984481 C108.805902,104.326941 107.894681,105.377974 107.727688,106.661492 C107.643133,107.310576 107.553987,107.957719 107.461841,108.591799 L104.614494,108.591799 C104.522525,107.957719 104.43338,107.310753 104.348648,106.662198 C104.181126,105.378151 103.270081,104.327117 102.027345,103.984658 C100.838097,103.657026 99.6905083,103.18129 98.6156481,102.570864 C97.4940087,101.933607 96.1058168,102.031578 95.0796774,102.821354 C94.562989,103.218713 94.042417,103.613248 93.5257285,103.998603 L91.5126383,101.985329 C91.8969331,101.47005 92.2916428,100.949476 92.6902361,100.431374 C93.4793025,99.4048774 93.5776269,98.0170332 92.9403719,96.895566 C92.3301253,95.8212312 91.8543906,94.6731087 91.5265838,93.4838558 C91.184302,92.2411156 90.1334491,91.330067 88.8495834,91.1625442 C88.2005013,91.0778119 87.5533609,90.988843 86.9192834,90.8965201 L86.9192834,88.0495152 C87.5533609,87.9575454 88.2003247,87.8682234 88.8494069,87.7836677 C90.1332726,87.6161449 91.184302,86.7049197 91.5264073,85.4625326 C91.8542141,84.2731031 92.3297722,83.1251571 92.9401954,82.0506458 C93.5776269,80.9291787 93.4793025,79.5411579 92.6900596,78.5146615 C92.2912898,77.9963824 91.89658,77.4756319 91.5126383,76.9612363 L93.5257285,74.9479618 C94.0420639,75.3333172 94.5628124,75.7280284 95.0791478,76.1250345 C96.1051107,76.9149866 97.4931261,77.0134878 98.6156481,76.3760539 C99.6898022,75.7658049 100.83792,75.2900684 102.026992,74.9620839 C103.270081,74.6196242 104.181302,73.5685908 104.348295,72.2850731 C104.433027,71.6359885 104.522348,70.9890222 104.614318,70.3549422 L107.461665,70.3549422 C107.553634,70.9888457 107.642779,71.635812 107.727335,72.2845436 C107.894857,73.5685908 108.806079,74.6196242 110.048638,74.9619073 C111.238063,75.2897154 112.386181,75.7656284 113.460511,76.3758774 C114.582327,77.0133113 115.970343,76.9142804 116.996305,76.125211 C117.512994,75.7280284 118.033566,75.3333172 118.550254,74.9479618 L120.563344,76.9612363 C120.179403,77.4758084 119.784693,77.9967354 119.385923,78.5151911 C118.59668,79.5415109 118.498532,80.9293552 119.135434,82.0508223 C119.745681,83.1255102 120.221416,84.2736327 120.549222,85.4627091 C120.891504,86.7054493 121.942357,87.6164979 123.226223,87.7840207 C123.875305,87.868753 124.522445,87.9578984 125.156523,88.0500448 L125.156523,90.8970497 Z" id="Shape-Copy" stroke="#333333" fill="#333333" fill-rule="nonzero"></path>
                        <path d="M106.038168,82.1450382 C101.997455,82.1450382 98.7099237,85.432376 98.7099237,89.4732035 C98.7099237,93.5141889 101.997297,96.8015267 106.038168,96.8015267 C110.079039,96.8015267 113.366412,93.5141889 113.366412,89.4732035 C113.366412,85.432376 110.079039,82.1450382 106.038168,82.1450382 Z M106.038168,93.54388 C103.793784,93.54388 101.967448,91.7177216 101.967448,89.4730455 C101.967448,87.2283695 103.793626,85.402369 106.038168,85.402369 C108.28271,85.402369 110.10873,87.2285274 110.108888,89.4730455 C110.108888,91.7177216 108.28271,93.54388 106.038168,93.54388 Z" id="Shape-Copy-2" stroke="#333333" fill="#333333" fill-rule="nonzero"></path>
                    </g>
                </g>
            </g>
        </g>
    </g>
</svg>