<?xml version="1.0" encoding="UTF-8"?>
<svg width="130px" height="130px" viewBox="0 0 130 130" version="1.1" xmlns="http://www.w3.org/2000/svg" xmlns:xlink="http://www.w3.org/1999/xlink">
    <!-- Generator: sketchtool 50.2 (55047) - http://www.bohemiancoding.com/sketch -->
    <title>531CC610-5E59-4066-8D69-D247D55C280F</title>
    <desc>Created with sketchtool.</desc>
    <defs>
        <rect id="path-1" x="0" y="0" width="130" height="130"></rect>
    </defs>
    <g id="FAQ" stroke="none" stroke-width="1" fill="none" fill-rule="evenodd">
        <g id="F.A.Q." transform="translate(-1055.000000, -961.000000)">
            <g id="Category-Questions" transform="translate(135.000000, 903.000000)">
                <g id="3" transform="translate(800.000000, 0.000000)">
                    <g id="login" transform="translate(120.000000, 58.000000)">
                        <mask id="mask-2" fill="white">
                            <use xlink:href="#path-1"></use>
                        </mask>
                        <g id="Rectangle-13"></g>
                        <path d="M24.7553592,115.648809 C24.8672339,115.755415 24.9827616,115.858819 25.1060521,115.954445 C35.5916794,124.083074 47.9883092,128.683624 61.145687,129.369932 C61.2392964,129.374965 61.3333625,129.37954 61.4269719,129.384115 C61.844333,129.404247 62.263064,129.419803 62.6817951,129.432157 C62.8050855,129.435817 62.928376,129.440393 63.0516665,129.443595 C63.5681166,129.455491 64.0850234,129.46327 64.6037567,129.46327 C65.1252298,129.46327 65.645333,129.455491 66.1649795,129.443595 C66.2837037,129.44085 66.4015146,129.436275 66.5197821,129.432614 C66.9490157,129.420261 67.3768793,129.404247 67.8042863,129.383658 C67.88648,129.37954 67.968217,129.375422 68.049954,129.370847 C81.4228618,128.677676 93.9852488,123.952218 104.567682,115.593447 C104.712891,115.478605 104.849424,115.354612 104.978194,115.224671 C119.738348,103.351089 129.205687,85.1300746 129.205687,64.7320923 C129.206144,29.0385973 100.225574,0 64.6037567,0 C28.9819396,0 0,29.0385973 0,64.7316348 C0,85.37257 9.69154526,103.78758 24.7553592,115.648809 Z M70.5353989,119.993595 C70.2522874,120.023335 69.9687193,120.050787 69.6846945,120.076409 C69.3705321,120.105234 69.0568263,120.134059 68.741294,120.157394 C68.1937929,120.197199 67.644922,120.229227 67.0942245,120.253019 C66.9056357,120.261712 66.7170469,120.268118 66.5280015,120.274523 C65.8882609,120.296028 65.2471504,120.311584 64.6033001,120.311584 C63.9676691,120.311584 63.334778,120.296485 62.7028001,120.275438 C62.5164945,120.269033 62.3306455,120.26217 62.1452531,120.254392 C61.6196704,120.231515 61.0959141,120.201317 60.5730712,120.164257 C60.2689546,120.142295 59.9657514,120.115758 59.6630047,120.088763 C59.3351434,120.059938 59.0077387,120.028825 58.6807906,119.99451 C58.315942,119.955619 57.9515502,119.915356 57.5885282,119.869144 C57.5241432,119.860909 57.4602148,119.8513 57.3958297,119.843065 C48.1905969,118.641111 39.6876633,115.170224 32.4655807,110.009189 L32.4655807,101.725454 C32.4655807,90.8236839 37.8693569,81.1691636 46.1279928,75.2893361 C51.2897544,79.3312314 57.7762037,81.7493225 64.8197434,81.7493225 C71.863283,81.7493225 78.350189,79.3316889 83.5114939,75.2893361 C91.7701298,81.1691636 97.173906,90.8236839 97.173906,101.725454 L97.173906,109.692115 L97.1743626,109.692115 C89.5303527,115.267222 80.4178161,118.936223 70.5353989,119.993595 Z M64.6037567,9.1507704 C95.1902991,9.1507704 120.074428,34.0838745 120.074428,64.7316348 C120.074428,78.7423793 114.87157,91.5571182 106.302881,101.342952 C106.181874,87.9832848 99.7406312,76.1097027 89.8349258,68.5845666 C93.2381998,63.6632823 95.2391587,57.6983526 95.2391587,51.2708515 C95.2391587,49.7586867 95.127284,48.2378286 94.9062744,46.7503709 C94.535033,44.2512955 92.2135189,42.5268328 89.7175716,42.8983541 C87.2229941,43.2703329 85.5019503,45.5973738 85.8731916,48.0969068 C86.0279897,49.1396371 86.1065303,50.207532 86.1065303,51.2708515 C86.1065303,55.9848709 84.5695089,60.3447554 81.9749292,63.8792405 C79.8698583,66.7470919 77.0675113,69.0681849 73.8199487,70.5927032 C71.0847265,71.8770138 68.0357985,72.5990096 64.8211133,72.5990096 C61.6064281,72.5990096 58.5575001,71.8770138 55.8222779,70.5927032 C52.5747152,69.0681849 49.7723682,66.7470919 47.6672973,63.8792405 C45.0727176,60.3447554 43.5356962,55.9853284 43.5356962,51.2708515 C43.5356962,39.5107389 53.0843159,29.9431509 64.8211133,29.9431509 C66.4366752,29.9431509 68.0453877,30.1243362 69.6034141,30.4825888 C72.0642009,31.0494791 74.5117453,29.5084893 75.0747718,27.0451019 C75.638255,24.5821721 74.1026035,22.1279355 71.6445566,21.5633329 C69.4184784,21.0518049 67.1225356,20.7923805 64.8215699,20.7923805 C48.0490412,20.7923805 34.4035245,34.4650041 34.4035245,51.2708515 C34.4035245,57.6983526 36.4044833,63.6632823 39.8077573,68.5845666 C29.8070726,76.1815362 23.3347788,88.2097664 23.3347788,101.725454 L23.3347788,101.827028 C14.50992,91.9817139 9.13308504,78.9748089 9.13308504,64.7316348 C9.13262841,34.0838745 34.0167577,9.1507704 64.6037567,9.1507704 Z" id="Shape" fill="#333333" fill-rule="nonzero" opacity="0.25" mask="url(#mask-2)"></path>
                        <path d="M81.3077377,35.2574389 C81.4244899,35.5316684 81.5692625,35.7967569 81.7373856,36.0435634 C81.9055086,36.2949405 82.1016522,36.5280356 82.3164761,36.7382782 C82.5313,36.9535483 82.7694744,37.1409385 83.026329,37.3095896 C83.2785136,37.4741273 83.5493786,37.6162696 83.8342538,37.7305319 C84.1144589,37.8447942 84.4086742,37.9311765 84.7075597,37.9905929 C85.0064451,38.0500093 85.3146707,38.0774322 85.6182262,38.0774322 C85.9217818,38.0774322 86.2300074,38.0495522 86.5288928,37.9905929 C86.8277783,37.9311765 87.1219936,37.8447942 87.4068688,37.7305319 C87.6870739,37.6162696 87.9579389,37.4741273 88.2101235,37.3095896 C88.4669781,37.1409385 88.7051525,36.9535483 88.9199764,36.7382782 C89.1348003,36.5280356 89.3309439,36.2949405 89.4990669,36.0435634 C89.66719,35.7967569 89.8119626,35.5316684 89.9287148,35.2574389 C90.0454669,34.9786389 90.1388686,34.6952684 90.1949096,34.4027569 C90.2556207,34.105675 90.2883113,33.808593 90.2883113,33.5069406 C90.2883113,33.2098586 90.2556207,32.9077491 90.1949096,32.6156947 C90.1388686,32.3231833 90.0454669,32.0347852 89.9287148,31.7610128 C89.8119626,31.4872403 89.66719,31.2175813 89.4990669,30.9707748 C89.3309439,30.7189407 89.1348003,30.4858456 88.9199764,30.275603 C88.7051525,30.0653604 88.4669781,29.8733998 88.2101235,29.7088621 C87.9579389,29.5447814 87.6870739,29.4026391 87.4068688,29.2883768 C87.1219936,29.1741145 86.8277783,29.0877322 86.5288928,29.0283159 C85.9264519,28.909026 85.3100006,28.909026 84.7075597,29.0283159 C84.4086742,29.0877322 84.1144589,29.1741145 83.8342538,29.2883768 C83.5493786,29.4026391 83.2785136,29.5447814 83.026329,29.7088621 C82.7694744,29.8733998 82.5313,30.0653604 82.3164761,30.275603 C82.1016522,30.4858456 81.9055086,30.7189407 81.7373856,30.9707748 C81.5692625,31.2175813 81.4244899,31.4872403 81.3077377,31.7610128 C81.1909856,32.0347852 81.102254,32.3231833 81.0415429,32.6156947 C80.9808318,32.9082062 80.9481412,33.2098586 80.9481412,33.5069406 C80.9481412,33.808593 80.9808318,34.105675 81.0415429,34.4027569 C81.102254,34.6952684 81.1909856,34.9786389 81.3077377,35.2574389 Z" id="Shape" fill="#333333" fill-rule="nonzero" opacity="0.25" mask="url(#mask-2)"></path>
                    </g>
                </g>
            </g>
        </g>
    </g>
</svg>