<?xml version="1.0" encoding="UTF-8"?>
<svg width="130px" height="85px" viewBox="0 0 130 85" version="1.1" xmlns="http://www.w3.org/2000/svg" xmlns:xlink="http://www.w3.org/1999/xlink">
    <!-- Generator: sketchtool 50.2 (55047) - http://www.bohemiancoding.com/sketch -->
    <title>329D9078-35CA-430C-83CB-FB610C7E0633</title>
    <desc>Created with sketchtool.</desc>
    <defs></defs>
    <g id="FAQ" stroke="none" stroke-width="1" fill="none" fill-rule="evenodd">
        <g id="F.A.Q." transform="translate(-245.000000, -984.000000)">
            <g id="Category-Questions" transform="translate(135.000000, 903.000000)">
                <g id="1">
                    <g id="game-controller-hand-drawn-tool-copy-15" transform="translate(110.000000, 58.000000)">
                        <rect id="Rectangle-2" x="0" y="0" width="130" height="130"></rect>
                        <path d="M105.934195,49.7714789 C105.625324,49.7592605 105.354107,49.8032975 105.100955,49.8722802 C93.6243824,48.711028 82.000498,48.2673492 70.3600761,48.2546218 C73.8057448,43.6778321 79.411476,43.0702238 85.0083024,41.1175789 C91.3968973,38.8900213 94.0869258,33.7809697 93.3620709,27.1629521 C92.9033438,22.9682403 86.2834772,22.9231851 86.7470383,27.1629521 C87.543132,34.4280331 82.8194899,34.906076 76.9349096,36.5748987 C70.7864913,38.3180498 65.6522083,41.6269313 63.0545359,47.6640683 C62.9609077,47.8811985 62.8988282,48.0957833 62.8497243,48.3090953 C50.2096692,48.4821885 37.5810632,49.0885241 25.1239392,49.7714789 C24.990112,49.7793699 24.8700237,49.8071157 24.7466279,49.8297706 C24.5352013,49.7872609 24.3120711,49.7612969 24.0645163,49.7714789 C3.88535943,50.5883264 -3.55375354,74.4522885 3.73804774,91.5185214 C7.0944135,99.3761923 14.3327857,105.696897 22.9274939,106.789166 C35.9802253,108.447552 46.3391119,100.100129 52.1348981,89.1038703 C60.7380024,89.6323138 69.3456863,89.3479827 77.959222,89.2861273 C83.7718002,100.19304 94.0904877,108.439661 107.072235,106.789166 C115.667706,105.696897 122.905315,99.3761923 126.261935,91.5185214 C133.553482,74.4522885 126.115641,50.5883264 105.934195,49.7714789 Z M121.339079,89.5936224 C118.412945,95.4968666 113.171295,101.009887 106.216606,101.594332 C94.8977761,102.545581 86.8075913,95.21279 81.9885401,85.5506218 C81.7559962,85.0840336 81.4483972,84.7648292 81.1072142,84.547699 C80.6937747,84.1961669 80.1459991,83.9698729 79.4470954,83.9711457 C69.8117917,84.0047461 60.1846295,84.4143153 50.5640823,83.7061602 C49.2197041,83.606377 48.4169954,84.3743512 48.1353476,85.3515645 C48.0946398,85.41902 48.0480801,85.4757844 48.011443,85.5506218 C43.1916285,95.21279 35.1014437,102.545836 23.7821053,101.594332 C16.8286883,101.01116 11.5872927,95.4983939 8.66090409,89.5936224 C2.04867019,76.2555131 8.14722137,55.71876 24.065534,55.0737331 C24.1960536,55.0683875 24.3130888,55.042169 24.4331771,55.0220596 C24.6476568,55.0635511 24.8735856,55.0874787 25.1249569,55.0737331 C52.8678946,53.551785 81.4654437,52.3798417 109.12493,55.604213 C109.387242,55.6347589 109.621058,55.6217769 109.841898,55.5886855 C122.808379,58.5254165 127.37784,77.4111652 121.339079,89.5936224 Z" id="Shape" stroke="#333333" fill="#333333" fill-rule="nonzero" opacity="0.25"></path>
                        <path d="M35.8108995,74.0161498 L30.850292,74.0161498 L30.850292,70.3282374 C30.850292,64.5579579 22.2827016,64.5565505 22.2827016,70.3282374 L22.2827016,74.0161498 L18.1888323,74.0161498 C16.925342,74.0161498 15.8048328,74.534912 15.0352036,75.472512 C14.3669755,76.288514 14,77.3693859 14,78.5113383 C14,80.7457031 15.4378572,83.0068082 18.1888323,83.0068082 L22.2829698,83.0068082 L22.2829698,87.6050173 C22.2829698,90.4907201 24.4378779,92 26.5664968,92 C28.6956522,92 30.8505602,90.4907201 30.8505602,87.6050173 L30.8505602,83.0068082 L35.8111677,83.0068082 C38.561338,83.0068082 40,80.7457031 40,78.5113383 C39.9997317,76.2772549 38.5610697,74.0161498 35.8108995,74.0161498 Z" id="Shape" stroke="#333333" fill="#333333" fill-rule="nonzero" opacity="0.25"></path>
                        <path d="M104.99984,62 C103.490986,62 102.154408,62.5764113 101.23571,63.6193369 C100.437094,64.5263784 100,65.7261655 100,66.9995304 C100,69.48458 101.715393,72 104.99984,72 C106.509014,72 107.845592,71.4226494 108.76429,70.3797238 C109.562586,69.4720561 110,68.2728952 110,66.9995304 C110,64.51542 108.283006,62 104.99984,62 Z" id="Shape" stroke="#333333" fill="#333333" fill-rule="nonzero" opacity="0.25"></path>
                        <path d="M94.9999992,75 C93.4908736,75 92.1543384,75.5771098 91.2375919,76.620166 C90.4390009,77.5266948 90,78.7272585 90,79.9992172 C90,82.484578 91.7172588,85 94.9999992,85 C96.5088046,85 97.84566,84.4228902 98.7624065,83.3782684 C99.5609975,82.4717395 99.9999984,81.2727415 99.9999984,79.9992172 C100.00192,77.515422 98.2827396,75 94.9999992,75 Z" id="Shape" stroke="#333333" fill="#333333" fill-rule="nonzero" opacity="0.25"></path>
                        <path d="M114.00016,75 C112.490986,75 111.154408,75.5774048 110.237311,76.6204284 C109.439015,77.5269289 109,78.7271418 109,79.9990606 C109,82.4846568 110.716994,85 114.00016,85 C115.509014,85 116.845592,84.4225952 117.762689,83.378006 C118.560985,82.4715055 119,81.2728582 119,79.9990606 C119,77.5156563 117.283006,75 114.00016,75 Z" id="Shape" stroke="#333333" fill="#333333" fill-rule="nonzero" opacity="0.25"></path>
                        <path d="M105.00016,82 C103.490986,82 102.154408,82.5771098 101.237311,83.620166 C100.439015,84.5266948 100,85.7272585 100,86.9992172 C100,89.484578 101.715393,92 105.00016,92 C106.509014,92 107.845912,91.4228902 108.762689,90.3782684 C109.560985,89.4717395 110,88.2727415 110,86.9992172 C110,84.515422 108.283006,82 105.00016,82 Z" id="Shape" stroke="#333333" fill="#333333" fill-rule="nonzero" opacity="0.25"></path>
                        <path d="M58.3749598,69 L52.6250402,69 C50.2459552,69 49,71.5156563 49,73.9993737 C49,76.4846568 50.2447945,79 52.6250402,79 L58.3749598,79 C60.7540448,79 62,76.4846568 62,73.9993737 C62,71.5156563 60.7538126,69 58.3749598,69 Z" id="Shape" stroke="#333333" fill="#333333" fill-rule="nonzero" opacity="0.25"></path>
                        <path d="M77.5092944,69 L71.4907056,69 C69.1986656,69 68,71.5156563 68,73.9993737 C68,76.4846568 69.1986656,79 71.4907056,79 L77.5092944,79 C79.8013344,79 81,76.4846568 81,73.9993737 C81,71.5156563 79.8013344,69 77.5092944,69 Z" id="Shape" stroke="#333333" fill="#333333" fill-rule="nonzero" opacity="0.25"></path>
                    </g>
                </g>
            </g>
        </g>
    </g>
</svg>