<?xml version="1.0" encoding="UTF-8"?>
<svg width="128px" height="128px" viewBox="0 0 128 128" version="1.1" xmlns="http://www.w3.org/2000/svg" xmlns:xlink="http://www.w3.org/1999/xlink">
    <!-- Generator: sketchtool 50.2 (55047) - http://www.bohemiancoding.com/sketch -->
    <title>410A82CC-7C98-44B6-B6F9-C793372196CD</title>
    <desc>Created with sketchtool.</desc>
    <defs></defs>
    <g id="FAQ" stroke="none" stroke-width="1" fill="none" fill-rule="evenodd">
        <g id="F.A.Q." transform="translate(-256.000000, -1501.000000)">
            <g id="Category-Questions" transform="translate(135.000000, 903.000000)">
                <g id="4" transform="translate(0.000000, 539.000000)">
                    <g id="hand" transform="translate(120.000000, 58.000000)">
                        <rect id="Rectangle-14" x="0" y="0" width="130" height="130"></rect>
                        <path d="M60.268132,87.2689003 C61.243956,86.2911703 61.243956,84.7088299 60.268132,83.7310999 C59.291331,82.7563 57.7089134,82.7563 56.7311356,83.7310999 C55.7562881,84.7088299 55.7562881,86.2911703 56.7311356,87.2689003 C57.7089134,88.2436999 59.291331,88.2436999 60.268132,87.2689003 Z" id="Shape" stroke="#333333" stroke-width="2" fill="#333333" fill-rule="nonzero" opacity="0.25"></path>
                        <path d="M49,29.4995116 C49,44.6627299 61.1122122,57 76,57 C90.8877878,57 103,44.6627299 103,29.4995116 C103,14.3362934 90.8877878,2 76,2 C61.1122122,2 49,14.3362934 49,29.4995116 Z M98.0914321,29.4995116 C98.0914321,41.9061362 88.1812659,51.9996447 76,51.9996447 C63.8187341,51.9996447 53.9085677,41.9061362 53.9085677,29.4995116 C53.9085677,17.0938638 63.8187341,7.00035528 76,7.00035528 C88.1812659,7.00035528 98.0914321,17.0938638 98.0914321,29.4995116 Z" id="Shape" stroke="#333333" stroke-width="2" fill="#333333" fill-rule="nonzero" opacity="0.25"></path>
                        <path d="M30.3468802,127.279879 C31.3007912,128.231415 32.8537814,128.241882 33.8201932,127.299861 L45.7517734,115.668286 C47.7788342,113.662448 48.3952222,110.692704 47.5038154,108.111187 L50.0703362,105.661933 C51.4521608,104.341201 53.2715153,103.613276 55.1947229,103.613276 L87.9113696,103.613276 C93.71561,103.613276 99.20156,101.407616 103.360496,97.4026007 C103.531662,97.237985 102.06137,98.9517013 125.680283,71.0184108 C129.183406,66.9172909 128.659331,60.7589499 124.510973,57.2886981 C120.388577,53.8507984 114.213157,54.3446457 110.700418,58.3753521 L96.1782776,73.1450938 C94.3444991,70.9118388 91.5481552,69.5197416 88.5267961,69.5197416 L61.0835847,69.5197416 C57.1785116,67.9030819 53.0349606,67.0847612 48.7596701,67.0847612 C36.9088647,67.0847612 26.5610461,72.5009038 21.0077839,82.6556958 C18.6682019,82.2170378 16.2007264,82.9173683 14.4256056,84.6739039 L2.71807933,96.2931099 C1.76224501,97.2417912 1.76032193,98.7766187 2.71423292,99.7281547 L30.3468802,127.279879 Z M48.7587083,71.9547223 C52.5281953,71.9547223 56.1726739,72.7054841 59.5930986,74.1860741 C59.9046583,74.3211923 60.2402582,74.3906544 60.5797043,74.3906544 L88.5267961,74.3906544 C91.1952465,74.3906544 93.4492459,76.5439804 93.4492459,79.2606154 C93.4492459,81.9468016 91.2414035,84.1315282 88.5267961,84.1315282 L68.4475466,84.1315282 C67.0888005,84.1315282 65.9868026,85.2219886 65.9868026,86.5665089 C65.9868026,87.9119809 67.0888005,89.0014895 68.4475466,89.0014895 L88.5267961,89.0014895 C93.9550496,89.0014895 98.3707343,84.6320363 98.3707343,79.2606154 C98.3707343,78.8324244 98.339963,78.4080392 98.2841898,77.9874604 C112.33226,63.6982446 114.313164,61.6905035 114.397785,61.5905923 C116.151751,59.5419354 119.265424,59.2821661 121.336718,61.0101554 C123.409936,62.7448054 123.672454,65.8239758 121.913681,67.8840514 L99.8400649,93.9961019 C96.616769,97.0581445 92.3847504,98.7433148 87.9113696,98.7433148 L55.1947229,98.7433148 C51.9887356,98.7433148 48.953914,99.9565233 46.6518346,102.157426 L44.5603462,104.1547 L25.2801895,85.0773551 C29.7862651,76.7124022 38.2416475,71.9547223 48.7587083,71.9547223 Z M17.9085348,88.1156095 C18.7201284,87.3125131 19.966367,87.1678796 20.9558572,87.7730565 C21.3818478,88.0299711 20.1586877,86.9280925 42.2717291,108.779165 C43.2554499,109.752586 43.2025616,111.30359 42.2851917,112.211355 L32.1133464,122.127312 L7.93189511,98.0163413 L17.9085348,88.1156095 Z" id="Shape" stroke="#333333" stroke-width="2" fill="#333333" fill-rule="nonzero" opacity="0.25"></path>
                        <path d="M72.1057345,14.5006977 L72.1057345,17.4302261 C69.2264713,18.4617639 67.1581184,21.2408596 67.1581184,24.5005581 C67.1581184,28.635501 70.4868134,32.0006977 74.5790593,32.0006977 C75.9428191,32.0006977 77.0523839,33.1221044 77.0523839,34.5004187 C77.0523839,35.8787328 75.9428191,37.0001396 74.5790593,37.0001396 C73.522653,37.0001396 72.3811926,36.3290539 71.3673132,35.108987 C70.4877798,34.0520513 68.9278166,33.9162712 67.8820418,34.8042145 C66.8362673,35.6931342 66.7009545,37.2697459 67.5804876,38.3266815 C68.902687,39.9159922 70.4578179,41.023723 72.1057345,41.5824727 L72.1057345,44.500279 C72.1057345,45.8815237 73.2133666,47 74.5790593,47 C75.9447521,47 77.0523839,45.8815237 77.0523839,44.500279 L77.0523839,41.5707507 C79.9316471,40.5382361 82,37.7591404 82,34.5004187 C82,30.364499 78.671305,27.000279 74.5790593,27.000279 C73.2152995,27.000279 72.1057345,25.8788724 72.1057345,24.5005581 C72.1057345,23.122244 73.2152995,21.9998604 74.5790593,21.9998604 C75.455693,21.9998604 76.3806527,22.452135 77.2543868,23.3068658 C78.2363711,24.2670947 79.8021336,24.2407201 80.7522228,23.2492324 C81.7023118,22.256768 81.6762157,20.6742953 80.6951981,19.7140666 C79.4396885,18.4861847 78.1832125,17.7916552 77.0523839,17.412643 L77.0523839,14.5006977 C77.0523839,13.1194531 75.9447521,12 74.5790593,12 C73.2133666,12 72.1057345,13.1194531 72.1057345,14.5006977 Z" id="Shape" fill="#333333" fill-rule="nonzero" opacity="0.25"></path>
                    </g>
                </g>
            </g>
        </g>
    </g>
</svg>