<?xml version="1.0" encoding="UTF-8"?><!DOCTYPE svg PUBLIC "-//W3C//DTD SVG 1.1//EN" "http://www.w3.org/Graphics/SVG/1.1/DTD/svg11.dtd"><svg xmlns="http://www.w3.org/2000/svg"><symbol id="icon-arrow" viewBox="0 0 27 16">
    <path d="M18.885.24a.803.803 0 0 0-1.147 0 .81.81 0 0 0 0 1.136l5.815 5.815H.803A.799.799 0 0 0 0 7.994c0 .448.356.815.803.815h22.75l-5.815 5.804a.823.823 0 0 0 0 1.146c.32.321.837.321 1.147 0l7.191-7.191a.79.79 0 0 0 0-1.135L18.885.24z" fill-rule="nonzero"/>
</symbol><symbol id="icon-close" viewBox="0 0 48 48">
    <title>
        C1D840FE-FEC8-49CB-A7AE-4723ECACDA94
    </title>
    <path d="M28.228 23.986L47.092 5.122a2.998 2.998 0 0 0 0-4.242 2.998 2.998 0 0 0-4.242 0L23.986 19.744 5.121.88a2.998 2.998 0 0 0-4.242 0 2.998 2.998 0 0 0 0 4.242l18.865 18.864L.879 42.85a2.998 2.998 0 1 0 4.242 4.241l18.865-18.864L42.85 47.091a2.991 2.991 0 0 0 2.121.879 2.998 2.998 0 0 0 2.121-5.121L28.228 23.986z" fill-rule="nonzero"/>
</symbol><symbol id="icon-glass" viewBox="0 0 20 20">
    <title>
        5743E396-F31B-4AB1-B73B-6A85E3D47FDA
    </title>
    <path d="M19.755 18.58l-4.808-4.809A8.431 8.431 0 0 0 8.429 0 8.428 8.428 0 0 0 0 8.429a8.428 8.428 0 0 0 8.429 8.428 8.384 8.384 0 0 0 5.338-1.906l4.809 4.804a.833.833 0 0 0 1.18-1.175zM8.43 15.18c-3.727 0-6.756-3.029-6.756-6.751A6.763 6.763 0 0 1 8.43 1.673c3.722 0 6.755 3.033 6.755 6.756 0 3.722-3.033 6.75-6.755 6.75z" fill-rule="nonzero"/>
</symbol></svg>